<?xml version="1.0" encoding="utf-8"?>
<!-- Generator: Adobe Illustrator 22.0.0, SVG Export Plug-In . SVG Version: 6.00 Build 0)  -->
<svg version="1.1" id="Layer_1" xmlns="http://www.w3.org/2000/svg" xmlns:xlink="http://www.w3.org/1999/xlink" x="0px" y="0px"
	 viewBox="0 0 69.5 19.5" style="enable-background:new 0 0 69.5 19.5;" xml:space="preserve">
<style type="text/css">
	.st0{fill:url(#SVGID_1_);}
	.st1{fill:url(#SVGID_2_);}
	.st2{fill:#2B3A50;}
</style>
<g>
	<g>
		<linearGradient id="SVGID_1_" gradientUnits="userSpaceOnUse" x1="11.8827" y1="0.2452" x2="11.8827" y2="21.934">
			<stop  offset="5.190300e-02" style="stop-color:#EBE002"/>
			<stop  offset="0.9893" style="stop-color:#E20240"/>
		</linearGradient>
		<path class="st0" d="M2.2,9C2.1,9.2,2,9.3,1.9,9.4C1.9,9.5,1.8,9.7,1.8,9.8c0,0,0,0.1,0,0.1c0,0.1-0.1,0.2-0.1,0.3
			c0,0,0,0.1,0,0.1c0,0.1-0.1,0.2-0.1,0.4c0,0,0,0,0,0c0,0.1,0,0.3,0,0.4c0,0,0,0.1,0,0.1c0,0.1,0,0.2,0,0.3c0,0,0,0.1,0,0.1
			c0,0.3,0.1,0.6,0.1,0.9c0,0,0,0,0,0c0,0.1,0.1,0.3,0.1,0.4c0.2,0.6,0.6,1.2,1.1,1.7C3.7,15.5,4.8,16,6,16c0,0,0,0,0,0
			c0.1,0,0.1,0,0.2,0c0.2,0,0.3,0,0.5-0.1c0,0,0,0,0,0c0.1,0,0.2-0.1,0.3-0.1c-0.2-0.1-0.4-0.2-0.5-0.4c-0.9-0.9-0.9-2.4,0-3.4
			l4.6-4.6c0.8-0.8,2.4-1.4,4.3,0.4l4,4c0.9,0.9,0.9,2.4,0,3.4c-0.1,0.1-0.2,0.2-0.4,0.3c0.2,0.1,0.5,0.1,0.7,0.1c0,0,0.1,0,0.1,0v0
			c0.6-0.1,1.3-0.3,1.7-0.7c0,0,0.1-0.1,0.1-0.1c0.4-0.5,0.6-1,0.6-1.6c0-0.7-0.3-1.3-0.7-1.8l-0.1-0.1l-4.6-4.6
			c0,0-1.9-1.9-1.9-1.9c-0.1-0.1-0.1-0.1-0.2-0.2c-1-0.9-2.2-1.5-3.6-1.6h0h0h0c-0.1,0-0.3,0-0.4,0c0,0,0,0,0,0c-0.1,0-0.2,0-0.3,0
			h0h0l-0.1,0c-0.1,0-0.1,0-0.2,0c0,0,0,0-0.1,0C9.1,3,8.4,3.2,7.7,3.6c0,0,0,0,0,0C7.5,3.7,7.4,3.8,7.3,3.9c0,0-0.1,0.1-0.1,0.1
			C7.1,4,7,4.1,6.9,4.2C6.7,4.3,6.6,4.4,6.5,4.5L2.8,8.2C2.8,8.2,2.7,8.3,2.7,8.4l0,0C2.5,8.5,2.3,8.8,2.2,9z"/>
		<linearGradient id="SVGID_2_" gradientUnits="userSpaceOnUse" x1="-11.6934" y1="9.9317" x2="27.7614" y2="9.9317">
			<stop  offset="5.190300e-02" style="stop-color:#EBE002"/>
			<stop  offset="0.9893" style="stop-color:#E20240"/>
		</linearGradient>
		<path class="st1" d="M24,8.8l-6.2-6.2l-0.3-0.3c-0.1-0.1-0.1-0.1-0.2-0.2c-1-1-2.3-1.6-3.8-1.7h0h0l0,0c-0.1,0-0.3,0-0.4,0
			c0,0,0,0,0,0c-0.1,0-0.2,0-0.3,0h0h0l-0.1,0c0,0-0.1,0-0.2,0C11.1,0.5,9.9,1.1,9,2.1L6.5,4.5c0.1-0.1,0.2-0.2,0.4-0.3
			C7,4.1,7.1,4,7.2,3.9c0,0,0.1,0,0.1-0.1c0.1-0.1,0.3-0.2,0.4-0.2c0,0,0,0,0,0C8.4,3.2,9.1,3,10,2.9c0,0,0,0,0.1,0
			c0.1,0,0.1,0,0.2,0l0.1,0h0h0c0.1,0,0.2,0,0.3,0c0,0,0,0,0,0c0.1,0,0.2,0,0.4,0h0h0h0c1.4,0.1,2.6,0.6,3.6,1.6
			c0.1,0.1,0.1,0.1,0.2,0.2c0.1,0.1,1.9,1.9,1.9,1.9l4.6,4.6l0.1,0.1c0.5,0.5,0.7,1.1,0.7,1.8c0,0.6-0.2,1.2-0.6,1.6
			c0,0-0.1,0.1-0.1,0.1c-0.4,0.4-1.2,0.7-1.7,0.7v0c0,0-0.1,0-0.1,0c-0.2,0-0.5-0.1-0.7-0.1c-0.3-0.1-0.7-0.3-1-0.6l-3.2-3.2
			c0,0,0,0,0,0c-0.4-0.4-1-0.7-1.6-0.7c0,0-0.1,0-0.1,0l0,0c0,0-0.1,0-0.1,0c-0.6,0-1.2,0.3-1.7,0.7h0l-3.6,3.6
			c-0.2,0.2-0.5,0.4-0.8,0.5c-0.1,0-0.2,0.1-0.3,0.1c0,0,0,0,0,0c-0.2,0-0.3,0.1-0.5,0.1c-0.1,0-0.1,0-0.2,0c0,0,0,0,0,0
			c-1.2,0-2.3-0.4-3.1-1.3C2.3,14.2,2,13.6,1.8,13c0-0.1-0.1-0.3-0.1-0.4c0,0,0,0,0,0c-0.1-0.3-0.1-0.6-0.1-0.9c0,0,0-0.1,0-0.1
			c0-0.1,0-0.2,0-0.3c0,0,0-0.1,0-0.1c0-0.1,0-0.3,0-0.4c0,0,0,0,0,0c0-0.1,0-0.3,0.1-0.4c0,0,0-0.1,0-0.1c0-0.1,0.1-0.2,0.1-0.3
			c0,0,0-0.1,0-0.1c0-0.1,0.1-0.3,0.2-0.4C2,9.3,2.1,9.2,2.2,9c0.2-0.3,0.3-0.5,0.5-0.7l0,0L1.8,9.2C0.7,10.3,0,11.9,0,13.5
			c0,1.6,0.6,3.1,1.8,4.3C2,18,2.2,18.2,2.5,18.4l0,0c1,0.7,2.2,1.1,3.5,1.1c1.6,0,3.1-0.6,4.3-1.8l2.8-2.8v0l0,0l2.4,2.4
			c1.1,1.1,2.6,1.8,4.3,1.8c0,0,0,0,0,0v0c1.6,0,3.1-0.6,4.2-1.8c1.1-1.1,1.8-2.6,1.8-4.3C25.8,11.5,25.1,9.9,24,8.8z M6.7,15.9
			C6.7,15.9,6.7,15.9,6.7,15.9c0.1,0,0.1,0,0.2,0C6.8,15.9,6.7,15.9,6.7,15.9z"/>
	</g>
	<g>
		<g>
			<g>
				<path class="st2" d="M40.4,16.7V9.2h1.5l0.2,1c0.7-0.6,1.3-1,2.1-1v1.5c-0.7,0-1.3,0.3-1.9,0.9v5H40.4z"/>
				<path class="st2" d="M45.1,14.4c0-1.5,1.1-2.3,3.2-2.3c0.6,0,1.2,0,1.7,0.1v-0.5c0-0.7-0.6-1-1.9-1c-0.8,0-1.6,0.1-2.4,0.4V9.6
					c0.8-0.2,1.6-0.4,2.4-0.4c2.6,0,3.8,0.8,3.8,2.5v5h-1l-0.8-0.5c-0.7,0.3-1.3,0.5-2.1,0.5C46.2,16.7,45.1,15.9,45.1,14.4z
					 M48.4,13.5c-0.9,0-1.4,0.3-1.4,0.9c0,0.6,0.4,0.9,1.1,0.9c0.8,0,1.4-0.2,2-0.6v-1C49.7,13.5,49.1,13.5,48.4,13.5z"/>
				<path class="st2" d="M61,16.7c0,1.8-1.3,2.7-4,2.7c-0.9,0-1.7-0.1-2.4-0.4v-1.5c0.7,0.2,1.5,0.4,2.5,0.4c1.4,0,2.1-0.6,2.1-1.7
					c-0.6,0.2-1.2,0.4-1.8,0.4c-2.4,0-3.5-1.2-3.5-3.6c0-2.5,1.4-3.7,4.1-3.7c0.9,0,1.9,0.1,3.1,0.3V16.7z M59.1,10.9
					c-0.3-0.1-0.8-0.2-1.5-0.2c-1.4,0-2,0.7-2,2.2c0,1.4,0.6,2.1,1.7,2.1c0.7,0,1.3-0.1,1.8-0.4V10.9z"/>
				<path class="st2" d="M62.7,14.4c0-1.5,1.1-2.3,3.2-2.3c0.7,0,1.2,0,1.7,0.1v-0.5c0-0.7-0.6-1-1.9-1c-0.8,0-1.6,0.1-2.4,0.4V9.6
					c0.8-0.2,1.6-0.4,2.4-0.4c2.6,0,3.8,0.8,3.8,2.5v5h-1l-0.8-0.5c-0.6,0.3-1.3,0.5-2.1,0.5C63.7,16.7,62.7,15.9,62.7,14.4z
					 M65.9,13.5c-0.9,0-1.4,0.3-1.4,0.9c0,0.6,0.4,0.9,1.1,0.9c0.8,0,1.4-0.2,2-0.6v-1C67.2,13.5,66.6,13.5,65.9,13.5z"/>
			</g>
			<path class="st2" d="M36.7,14.1c1.3-0.5,1.9-1.3,1.9-2.5c0-1.6-1-2.4-2.9-2.4h-4.8v10.2h4.6c2.1,0,3.2-1,3.2-3
				C38.7,15.1,38.1,14.3,36.7,14.1z M35.5,17.8h-2.7v-6.9h2.8c0.7,0,1.1,0.3,1.1,0.9c0,0.7-0.3,1.4-1.1,1.6
				c-0.4,0.1-0.7,0.4-0.7,0.8c0,0.4,0.2,0.7,0.6,0.8c0.8,0.2,1.2,0.7,1.2,1.5C36.7,17.3,36.3,17.8,35.5,17.8z"/>
		</g>
		<g>
			<g>
				<path class="st2" d="M35,0.9c0,0-1.3-0.2-1.9-0.2c-0.9,0-1.4,0.3-1.4,1.1c0,0.9,0.5,1,1.6,1.3c1.3,0.3,1.9,0.6,1.9,1.8
					c0,1.4-0.8,2-2.1,2c-0.7,0-2-0.2-2-0.2L31.1,6c0,0,1.3,0.2,2,0.2c0.9,0,1.4-0.4,1.4-1.3c0-0.7-0.4-1-1.5-1.2
					c-1.4-0.3-2-0.6-2-1.9c0-1.2,0.8-1.8,2.2-1.8c0.7,0,1.9,0.2,1.9,0.2L35,0.9z"/>
				<path class="st2" d="M37.3,2.6v2.2c0,1,0.1,1.3,0.7,1.3c0.3,0,0.9,0,0.9,0l0,0.6c0,0-0.6,0.1-1,0.1c-1,0-1.3-0.4-1.3-1.8V2.6
					h-0.7V2h0.7V0.5h0.7V2h1.5v0.7H37.3z"/>
				<path class="st2" d="M43.2,5.8c0,0.3,0.2,0.4,0.6,0.4l0,0.6c-0.6,0-0.9-0.1-1.1-0.4c0,0-0.9,0.4-1.8,0.4c-0.8,0-1.3-0.5-1.3-1.5
					C39.6,4.5,40,4.1,41,4l1.5-0.1V3.4c0-0.6-0.3-0.9-0.8-0.9c-0.7,0-1.8,0.1-1.8,0.1l0-0.6c0,0,1.1-0.2,1.9-0.2
					c1,0,1.5,0.5,1.5,1.6V5.8z M41.1,4.5c-0.6,0.1-0.8,0.4-0.8,0.8c0,0.6,0.2,0.9,0.7,0.9c0.7,0,1.6-0.3,1.6-0.3V4.4L41.1,4.5z"/>
				<path class="st2" d="M44.9,2h0.7v0.6c0,0,0.7-0.6,1.7-0.7v0.7c-0.9,0.2-1.7,0.7-1.7,0.7v3.5h-0.7V2z"/>
				<path class="st2" d="M49.2,2.6v2.2c0,1,0.1,1.3,0.7,1.3c0.3,0,0.9,0,0.9,0l0,0.6c0,0-0.6,0.1-1,0.1c-1,0-1.3-0.4-1.3-1.8V2.6
					h-0.7V2h0.7V0.5h0.7V2h1.5v0.7H49.2z"/>
				<path class="st2" d="M55.6,2v4.8h-1.1V6.5c0,0-0.7,0.3-1.2,0.3c-1.2,0-1.6-0.7-1.6-2.4V2h1.1v2.5c0,1,0.1,1.4,0.7,1.4
					c0.4,0,1-0.2,1-0.2V2H55.6z"/>
				<path class="st2" d="M57.1,2h1.1v0.2c0,0,0.6-0.4,1.1-0.4c1.2,0,1.8,0.8,1.8,2.5c0,1.9-0.7,2.5-2.1,2.5c-0.4,0-0.8-0.1-0.8-0.1
					v1.5h-1.1V2z M58.2,3.1v2.7c0,0,0.4,0.1,0.8,0.1c0.8,0,1.1-0.6,1.1-1.6c0-0.9-0.3-1.5-0.9-1.5C58.7,2.9,58.2,3.1,58.2,3.1z"/>
			</g>
		</g>
	</g>
</g>
</svg>
